<svg width="90" height="89" xmlns="http://www.w3.org/2000/svg" xmlns:xlink="http://www.w3.org/1999/xlink" xml:space="preserve" overflow="hidden"><g transform="translate(-756 -344)"><path d="M4.94444 4.94444 84.0555 4.94444 84.0555 84.0555 4.94444 84.0555Z" fill="#01A88D" fill-rule="evenodd" transform="matrix(1.01124 0 0 1 756 344)"/><path d="M0.988889 0.988889 88.0111 0.988889 88.0111 88.0111 0.988889 88.0111Z" stroke="#879196" stroke-width="1.97778" fill="none" fill-rule="evenodd" transform="matrix(1.01124 0 0 1 756 344)"/><path d="M26.7 34.223 26.7 26.8676 21.4094 23.7991 22.4023 22.0883 26.7 24.5803 26.7 4.58798 21.2809 2.08708 15.8222 4.84015 15.8222 11.8672 13.8444 11.8672 13.8444 5.83695 8.9 8.33092 8.89901 15.886 14.8363 19.2097 20.7657 15.9196 20.7657 7.91164 22.7435 7.91164 22.7435 16.5021C22.7435 16.861 22.5486 17.1923 22.2342 17.3664L15.8232 20.9244 15.8222 25.7116 22.2273 29.414C22.5457 29.5871 22.7435 29.9203 22.7435 30.2822L22.7435 36.5024 26.7 34.223ZM26.7 36.5053 14.5485 43.5057 13.5616 41.7909 20.7657 37.6416 20.7657 30.8696 14.8679 27.6627 8.27008 31.462 7.28317 29.7482 13.8444 25.9697 13.8454 20.9214 7.93979 17.6166 1.97976 20.9244 1.97877 25.3685 7.16153 22.383 8.14844 24.0977 1.97877 27.6508 1.97976 33.1273 7.88936 36.7911 13.8296 33.3686 14.8165 35.0823 8.9 38.5672 8.89901 45.7406 14.2341 48.9732 21.716 44.4857 22.7336 46.1816 16.1456 50.1322 21.3234 53.2709 26.7 50.7898 26.7 36.5053ZM28.6778 3.95608 28.6778 51.4227C28.6778 51.8084 28.4533 52.1584 28.1032 52.3206L21.6755 55.2873C21.5439 55.3476 21.4025 55.3783 21.2611 55.3783 21.0831 55.3783 20.9061 55.3298 20.7479 55.2349L7.39689 47.1428C7.1022 46.9638 6.92123 46.6434 6.92123 46.2973L6.92222 38.5672 0.469722 34.5187C0.178989 34.3377 0.00197778 34.0202 0.00197778 33.6781L0.00197778 33.0739C0.000988889 33.0541 0 33.0333 0 33.0136L0 21.0065C0 20.9867 0.000988889 20.9659 0.00197778 20.9461L0.00197778 20.3419C0.00197778 19.983 0.196789 19.6517 0.511256 19.4767L6.92123 15.9196 6.92222 7.72276C6.92222 7.34896 7.13285 7.00779 7.46611 6.83968L20.8161 0.106336C21.0851-0.0301305 21.4025-0.0350749 21.6755 0.090514L28.1032 3.05718C28.4533 3.21936 28.6778 3.56942 28.6778 3.95608L28.6778 3.95608ZM55.2888 32.5349C55.177 32.2867 54.9674 32.0959 54.7103 32.0069L51.3095 30.8291C51.5933 28.706 51.5884 26.565 51.2937 24.4429L54.6915 23.2493C54.9466 23.1593 55.1553 22.9674 55.266 22.7182 55.3768 22.47 55.3807 22.1872 55.2749 21.936L51.1948 12.144C51.09 11.8929 50.8862 11.6961 50.6321 11.6002 50.3789 11.5042 50.0951 11.5171 49.8499 11.6358L46.6004 13.212C45.3 11.5102 43.784 10.0021 42.0802 8.71264L43.6426 5.45622C43.7603 5.21098 43.7722 4.92717 43.6743 4.67401 43.5764 4.41987 43.3786 4.21715 43.1274 4.11331L33.3176 0.0756807C33.0665-0.0271638 32.7836-0.0222193 32.5344 0.0885362 32.2862 0.200281 32.0964 0.409925 32.0064 0.667036L30.5537 4.86091 32.4237 5.50765 33.5332 2.30365 41.4068 5.54424 39.9412 8.59891C39.7316 9.03501 39.868 9.55814 40.2646 9.83601 42.2908 11.259 44.0481 13.0083 45.4859 15.0336 45.7658 15.4272 46.2889 15.5656 46.724 15.351L49.7718 13.8716 53.048 21.7303 49.8618 22.8498C49.4059 23.01 49.1329 23.4767 49.216 23.9524 49.6422 26.3989 49.6491 28.881 49.2328 31.3295 49.1527 31.8061 49.4276 32.2709 49.8845 32.4291L53.0737 33.5337 49.8341 41.4063 46.7873 39.9447C46.3522 39.735 45.8281 39.8725 45.5502 40.2671 44.1272 42.2933 42.3769 44.0505 40.3467 45.4904 39.9511 45.7702 39.8176 46.2943 40.0292 46.7285L41.5066 49.7723 33.6479 53.0475 32.5275 49.8583 30.6615 50.5139 32.129 54.691C32.219 54.9481 32.4108 55.1558 32.659 55.2665 32.7876 55.3239 32.9251 55.3526 33.0625 55.3526 33.1911 55.3526 33.3206 55.3269 33.4422 55.2764L43.2342 51.1943C43.4854 51.0905 43.6822 50.8867 43.7791 50.6316 43.874 50.3775 43.8612 50.0946 43.7425 49.8494L42.1672 46.6049C43.8721 45.3035 45.3841 43.7875 46.6736 42.0836L49.9211 43.6421C50.1663 43.7598 50.4511 43.7727 50.7033 43.6748 50.9574 43.5769 51.1602 43.3791 51.264 43.1279L55.3016 33.3181C55.4045 33.066 55.3995 32.7831 55.2888 32.5349L55.2888 32.5349ZM38.5667 27.6894C38.5667 23.2829 35.6099 19.3699 31.3755 18.1723L31.9134 16.2687C36.9953 17.7066 40.5444 22.4028 40.5444 27.6894 40.5444 32.9829 36.9884 37.6811 31.8976 39.113L31.3626 37.2104C35.604 36.0158 38.5667 32.1008 38.5667 27.6894L38.5667 27.6894Z" fill="#FFFFFF" fill-rule="evenodd" transform="matrix(1.01124 0 0 1 773 360.811)"/></g></svg>