<svg width="82" height="81" xmlns="http://www.w3.org/2000/svg" xmlns:xlink="http://www.w3.org/1999/xlink" xml:space="preserve" overflow="hidden"><g transform="translate(-1030 -124)"><g><g><g><g><path d="M1031 125 1111 125 1111 205 1031 205Z" fill="#DD344C" fill-rule="evenodd" fill-opacity="1"/><path d="M1085.01 174.999 1083.01 174.999 1083.01 178.999 1079.01 178.999 1079.01 180.999 1083.01 180.999 1083.01 184.999 1085.01 184.999 1085.01 180.999 1089.01 180.999 1089.01 178.999 1085.01 178.999 1085.01 174.999ZM1092.01 179.999C1092.01 175.589 1088.42 171.999 1084.01 171.999 1079.6 171.999 1076.01 175.589 1076.01 179.999 1076.01 184.41 1079.6 187.999 1084.01 187.999 1088.42 187.999 1092.01 184.41 1092.01 179.999ZM1094.01 179.999C1094.01 185.514 1089.52 189.999 1084.01 189.999 1078.5 189.999 1074.01 185.514 1074.01 179.999 1074.01 174.486 1078.5 169.999 1084.01 169.999 1089.52 169.999 1094.01 174.486 1094.01 179.999ZM1067.01 182.971 1067.01 147.456 1056.01 151.686 1056.01 171.999C1056.02 172.413 1056.41 182.38 1067.01 182.971ZM1080.01 168.699 1080.01 151.686 1069.01 147.456 1069.01 182.962C1070.17 182.885 1071.25 182.68 1072.25 182.363 1072.38 183.033 1072.58 183.678 1072.82 184.301 1071.36 184.76 1069.75 184.999 1068.01 184.999 1054.45 184.999 1054.01 172.152 1054.01 172.021L1054.01 150.999C1054.01 150.585 1054.27 150.215 1054.65 150.066L1067.65 145.066C1067.88 144.978 1068.14 144.978 1068.37 145.066L1081.37 150.066C1081.76 150.215 1082.01 150.585 1082.01 150.999L1082.01 168.18C1081.32 168.297 1080.65 168.471 1080.01 168.699ZM1075.76 188.688C1076.31 189.216 1076.92 189.693 1077.57 190.108 1074.82 191.357 1071.61 191.988 1068.01 191.988 1061.68 191.988 1056.64 190.062 1053.02 186.266 1046.59 179.523 1046.99 169.38 1047.01 168.952L1047.01 146.999C1047.01 146.59 1047.26 146.223 1047.64 146.07L1067.64 138.07C1067.88 137.977 1068.14 137.977 1068.38 138.07L1088.38 146.07C1088.76 146.223 1089.01 146.59 1089.01 146.999L1089.01 168.999C1089.01 168.999 1089.01 169.044 1089.01 169.107 1088.37 168.811 1087.71 168.574 1087.01 168.395L1087.01 147.676 1068.01 140.077 1049.01 147.676 1049.01 168.999C1049 169.143 1048.64 178.784 1054.48 184.896 1057.7 188.275 1062.26 189.988 1068.01 189.988 1070.9 189.988 1073.49 189.546 1075.76 188.688Z" fill="#FFFFFF" fill-rule="evenodd" fill-opacity="1"/></g></g></g></g></g></svg>